<svg width="20" height="18" viewBox="0 0 20 18" fill="none" xmlns="http://www.w3.org/2000/svg">
<g opacity="0.3" filter="url(#filter0_d_62005_20)">
<path d="M7.75 10C8.05 10 8.25 9.8 8.25 9.5C8.25 9.2 8.05 9 7.75 9C7.45 9 7.25 9.2 7.25 9.5C7.25 9.8 7.45 10 7.75 10Z" fill="black"/>
<path d="M17 2H15V0H14V2H6V0H5V2H3C2.4 2 2 2.4 2 3V14C2 14.5 2.4 15 3 15H17C17.5 15 18 14.5 18 14V3C18 2.4 17.5 2 17 2ZM17 14H3V7H17V14ZM3 6V3H5V5H6V3H14V5H15V3H17V6H3Z" fill="black"/>
<path d="M10 10C10.3 10 10.5 9.8 10.5 9.5C10.5 9.2 10.3 9 10 9C9.7 9 9.5 9.2 9.5 9.5C9.5 9.8 9.7 10 10 10Z" fill="black"/>
<path d="M12.25 10C12.55 10 12.75 9.8 12.75 9.5C12.75 9.2 12.55 9 12.25 9C11.95 9 11.75 9.2 11.75 9.5C11.75 9.8 11.95 10 12.25 10Z" fill="black"/>
<path d="M7.75 11C7.45 11 7.25 11.2 7.25 11.5C7.25 11.8 7.45 12 7.75 12C8.05 12 8.25 11.8 8.25 11.5C8.25 11.2 8.05 11 7.75 11Z" fill="black"/>
<path d="M5.5 10C5.8 10 6 9.8 6 9.5C6 9.2 5.8 9 5.5 9C5.2 9 5 9.2 5 9.5C5 9.8 5.2 10 5.5 10Z" fill="black"/>
<path d="M5.5 11C5.2 11 5 11.2 5 11.5C5 11.8 5.2 12 5.5 12C5.8 12 6 11.8 6 11.5C6 11.2 5.8 11 5.5 11Z" fill="black"/>
<path d="M10 11C9.7 11 9.5 11.2 9.5 11.5C9.5 11.8 9.7 12 10 12C10.3 12 10.5 11.8 10.5 11.5C10.5 11.2 10.3 11 10 11Z" fill="black"/>
<path d="M12.25 11C11.95 11 11.75 11.2 11.75 11.5C11.75 11.8 11.95 12 12.25 12C12.55 12 12.75 11.8 12.75 11.5C12.75 11.2 12.55 11 12.25 11Z" fill="black"/>
<path d="M14.5 10C14.8 10 15 9.8 15 9.5C15 9.2 14.8 9 14.5 9C14.2 9 14 9.2 14 9.5C14 9.8 14.2 10 14.5 10Z" fill="black"/>
<path d="M14.5 11C14.2 11 14 11.2 14 11.5C14 11.8 14.2 12 14.5 12C14.8 12 15 11.8 15 11.5C15 11.2 14.8 11 14.5 11Z" fill="black"/>
</g>
<defs>
<filter id="filter0_d_62005_20" x="-2" y="0" width="24" height="23" filterUnits="userSpaceOnUse" color-interpolation-filters="sRGB">
<feFlood flood-opacity="0" result="BackgroundImageFix"/>
<feColorMatrix in="SourceAlpha" type="matrix" values="0 0 0 0 0 0 0 0 0 0 0 0 0 0 0 0 0 0 127 0" result="hardAlpha"/>
<feOffset dy="4"/>
<feGaussianBlur stdDeviation="2"/>
<feComposite in2="hardAlpha" operator="out"/>
<feColorMatrix type="matrix" values="0 0 0 0 0 0 0 0 0 0 0 0 0 0 0 0 0 0 0.25 0"/>
<feBlend mode="normal" in2="BackgroundImageFix" result="effect1_dropShadow_62005_20"/>
<feBlend mode="normal" in="SourceGraphic" in2="effect1_dropShadow_62005_20" result="shape"/>
</filter>
</defs>
</svg>
